{
	"asset":{
		"generator":"Khronos glTF Blender I/O v4.0.44",
		"version":"2.0"
	},
	"extensionsUsed":[
		"KHR_materials_clearcoat",
		"KHR_materials_transmission",
		"KHR_materials_specular",
		"KHR_materials_ior"
	],
	"scene":0,
	"scenes":[
		{
			"name":"Scene",
			"nodes":[
				0
			]
		}
	],
	"nodes":[
		{
			"mesh":0,
			"name":"Mesh_0.001"
		}
	],
	"materials":[
		{
			"extensions":{
				"KHR_materials_clearcoat":{
					"clearcoatFactor":0.16363637149333954,
					"clearcoatRoughnessFactor":0.11363636702299118
				},
				"KHR_materials_transmission":{
					"transmissionFactor":0.1772727221250534
				},
				"KHR_materials_specular":{
					"specularFactor":0.27272725105285645
				},
				"KHR_materials_ior":{
					"ior":1.3000000715255737
				}
			},
			"name":"Material_0.001",
			"normalTexture":{
				"index":0
			},
			"pbrMetallicRoughness":{
				"baseColorTexture":{
					"index":1
				},
				"metallicFactor":0,
				"metallicRoughnessTexture":{
					"index":2
				}
			}
		}
	],
	"meshes":[
		{
			"name":"Mesh_0.001",
			"primitives":[
				{
					"attributes":{
						"POSITION":0,
						"NORMAL":1,
						"TEXCOORD_0":2
					},
					"indices":3,
					"material":0
				}
			]
		}
	],
	"textures":[
		{
			"sampler":0,
			"source":0
		},
		{
			"sampler":0,
			"source":1
		},
		{
			"sampler":0,
			"source":2
		}
	],
	"images":[
		{
			"mimeType":"image/jpeg",
			"name":"Image_0",
			"uri":"Image_0.jpg"
		},
		{
			"mimeType":"image/jpeg",
			"name":"Image_2",
			"uri":"Image_2.jpg"
		},
		{
			"mimeType":"image/jpeg",
			"name":"Image_3",
			"uri":"Image_3.jpg"
		}
	],
	"accessors":[
		{
			"bufferView":0,
			"componentType":5126,
			"count":24104,
			"max":[
				0.1278427392244339,
				0.552736759185791,
				0.21560245752334595
			],
			"min":[
				-0.14426815509796143,
				0,
				-0.06689473986625671
			],
			"type":"VEC3"
		},
		{
			"bufferView":1,
			"componentType":5126,
			"count":24104,
			"type":"VEC3"
		},
		{
			"bufferView":2,
			"componentType":5126,
			"count":24104,
			"type":"VEC2"
		},
		{
			"bufferView":3,
			"componentType":5123,
			"count":125418,
			"type":"SCALAR"
		}
	],
	"bufferViews":[
		{
			"buffer":0,
			"byteLength":289248,
			"byteOffset":0,
			"target":34962
		},
		{
			"buffer":0,
			"byteLength":289248,
			"byteOffset":289248,
			"target":34962
		},
		{
			"buffer":0,
			"byteLength":192832,
			"byteOffset":578496,
			"target":34962
		},
		{
			"buffer":0,
			"byteLength":250836,
			"byteOffset":771328,
			"target":34963
		}
	],
	"samplers":[
		{
			"magFilter":9729,
			"minFilter":9987
		}
	],
	"buffers":[
		{
			"byteLength":1022164,
			"uri":"untitled.bin"
		}
	]
}
