{
	"asset":{
		"generator":"Khronos glTF Blender I/O v4.0.44",
		"version":"2.0"
	},
	"scene":0,
	"scenes":[
		{
			"name":"Scene",
			"nodes":[
				0
			]
		}
	],
	"nodes":[
		{
			"mesh":0,
			"name":"Mesh_0.001"
		}
	],
	"materials":[
		{
			"name":"Material_0.001",
			"normalTexture":{
				"index":0
			},
			"occlusionTexture":{
				"index":1
			},
			"pbrMetallicRoughness":{
				"baseColorTexture":{
					"index":2
				},
				"metallicFactor":0,
				"metallicRoughnessTexture":{
					"index":1
				}
			}
		}
	],
	"meshes":[
		{
			"name":"Mesh_0.001",
			"primitives":[
				{
					"attributes":{
						"POSITION":0,
						"NORMAL":1,
						"TEXCOORD_0":2
					},
					"indices":3,
					"material":0
				}
			]
		}
	],
	"textures":[
		{
			"sampler":0,
			"source":0
		},
		{
			"sampler":0,
			"source":1
		},
		{
			"sampler":0,
			"source":2
		}
	],
	"images":[
		{
			"mimeType":"image/jpeg",
			"name":"Image_0",
			"uri":"Image_0.jpg"
		},
		{
			"mimeType":"image/png",
			"name":"Image_1-Image_3",
			"uri":"Image_1-Image_3.png"
		},
		{
			"mimeType":"image/jpeg",
			"name":"Image_2",
			"uri":"Image_2.jpg"
		}
	],
	"accessors":[
		{
			"bufferView":0,
			"componentType":5126,
			"count":41894,
			"max":[
				0.06850381195545197,
				0.09944916516542435,
				0.0912666767835617
			],
			"min":[
				-0.06907252222299576,
				-3.725290076417309e-09,
				-0.09053044766187668
			],
			"type":"VEC3"
		},
		{
			"bufferView":1,
			"componentType":5126,
			"count":41894,
			"type":"VEC3"
		},
		{
			"bufferView":2,
			"componentType":5126,
			"count":41894,
			"type":"VEC2"
		},
		{
			"bufferView":3,
			"componentType":5123,
			"count":217626,
			"type":"SCALAR"
		}
	],
	"bufferViews":[
		{
			"buffer":0,
			"byteLength":502728,
			"byteOffset":0,
			"target":34962
		},
		{
			"buffer":0,
			"byteLength":502728,
			"byteOffset":502728,
			"target":34962
		},
		{
			"buffer":0,
			"byteLength":335152,
			"byteOffset":1005456,
			"target":34962
		},
		{
			"buffer":0,
			"byteLength":435252,
			"byteOffset":1340608,
			"target":34963
		}
	],
	"samplers":[
		{
			"magFilter":9729,
			"minFilter":9987
		}
	],
	"buffers":[
		{
			"byteLength":1775860,
			"uri":"rapunzel.bin"
		}
	]
}
