{
	"asset":{
		"generator":"Khronos glTF Blender I/O v4.0.44",
		"version":"2.0"
	},
	"scene":0,
	"scenes":[
		{
			"name":"Scene",
			"nodes":[
				0
			]
		}
	],
	"nodes":[
		{
			"mesh":0,
			"name":"Mesh_0"
		}
	],
	"materials":[
		{
			"name":"Material_0",
			"normalTexture":{
				"index":0
			},
			"occlusionTexture":{
				"index":1
			},
			"pbrMetallicRoughness":{
				"baseColorTexture":{
					"index":2
				},
				"metallicFactor":0,
				"metallicRoughnessTexture":{
					"index":1
				}
			}
		}
	],
	"meshes":[
		{
			"name":"Mesh_0",
			"primitives":[
				{
					"attributes":{
						"POSITION":0,
						"NORMAL":1,
						"TEXCOORD_0":2
					},
					"indices":3,
					"material":0
				}
			]
		}
	],
	"textures":[
		{
			"sampler":0,
			"source":0
		},
		{
			"sampler":0,
			"source":1
		},
		{
			"sampler":0,
			"source":2
		}
	],
	"images":[
		{
			"mimeType":"image/jpeg",
			"name":"Image_0",
			"uri":"Image_0.jpg"
		},
		{
			"mimeType":"image/png",
			"name":"Image_1-Image_3",
			"uri":"Image_1-Image_3.png"
		},
		{
			"mimeType":"image/jpeg",
			"name":"Image_2",
			"uri":"Image_2.jpg"
		}
	],
	"accessors":[
		{
			"bufferView":0,
			"componentType":5126,
			"count":24114,
			"max":[
				0.20231269299983978,
				0.5561225414276123,
				0.2155468612909317
			],
			"min":[
				-0.13180917501449585,
				0.0005975556559860706,
				-0.11429384350776672
			],
			"type":"VEC3"
		},
		{
			"bufferView":1,
			"componentType":5126,
			"count":24114,
			"type":"VEC3"
		},
		{
			"bufferView":2,
			"componentType":5126,
			"count":24114,
			"type":"VEC2"
		},
		{
			"bufferView":3,
			"componentType":5123,
			"count":122724,
			"type":"SCALAR"
		}
	],
	"bufferViews":[
		{
			"buffer":0,
			"byteLength":289368,
			"byteOffset":0,
			"target":34962
		},
		{
			"buffer":0,
			"byteLength":289368,
			"byteOffset":289368,
			"target":34962
		},
		{
			"buffer":0,
			"byteLength":192912,
			"byteOffset":578736,
			"target":34962
		},
		{
			"buffer":0,
			"byteLength":245448,
			"byteOffset":771648,
			"target":34963
		}
	],
	"samplers":[
		{
			"magFilter":9729,
			"minFilter":9987
		}
	],
	"buffers":[
		{
			"byteLength":1017096,
			"uri":"rapunzel.bin"
		}
	]
}
