{
	"asset":{
		"generator":"Khronos glTF Blender I/O v4.0.44",
		"version":"2.0"
	},
	"scene":0,
	"scenes":[
		{
			"name":"Scene",
			"nodes":[
				0
			]
		}
	],
	"nodes":[
		{
			"mesh":0,
			"name":"Mesh_0",
			"translation":[
				0.007247462868690491,
				0,
				0
			]
		}
	],
	"materials":[
		{
			"name":"Material_0",
			"normalTexture":{
				"index":0
			},
			"occlusionTexture":{
				"index":1
			},
			"pbrMetallicRoughness":{
				"baseColorTexture":{
					"index":2
				},
				"metallicFactor":0,
				"metallicRoughnessTexture":{
					"index":1
				}
			}
		}
	],
	"meshes":[
		{
			"name":"Mesh_0",
			"primitives":[
				{
					"attributes":{
						"COLOR_0":0,
						"POSITION":1,
						"NORMAL":2,
						"TEXCOORD_0":3
					},
					"indices":4,
					"material":0
				}
			]
		}
	],
	"textures":[
		{
			"sampler":0,
			"source":0
		},
		{
			"sampler":0,
			"source":1
		},
		{
			"sampler":0,
			"source":2
		}
	],
	"images":[
		{
			"mimeType":"image/jpeg",
			"name":"Image_0",
			"uri":"Image_0.jpg"
		},
		{
			"mimeType":"image/png",
			"name":"Image_1-Image_3",
			"uri":"Image_1-Image_3.png"
		},
		{
			"mimeType":"image/png",
			"name":"Image_2",
			"uri":"Image_2.png"
		}
	],
	"accessors":[
		{
			"bufferView":0,
			"componentType":5126,
			"count":20647,
			"type":"VEC4"
		},
		{
			"bufferView":1,
			"componentType":5126,
			"count":20647,
			"max":[
				0.034491751343011856,
				0.0689573585987091,
				0.019310494884848595
			],
			"min":[
				-0.03468713536858559,
				0,
				-0.020337959751486778
			],
			"type":"VEC3"
		},
		{
			"bufferView":2,
			"componentType":5126,
			"count":20647,
			"type":"VEC3"
		},
		{
			"bufferView":3,
			"componentType":5126,
			"count":20647,
			"type":"VEC2"
		},
		{
			"bufferView":4,
			"componentType":5123,
			"count":105642,
			"type":"SCALAR"
		}
	],
	"bufferViews":[
		{
			"buffer":0,
			"byteLength":330352,
			"byteOffset":0,
			"target":34962
		},
		{
			"buffer":0,
			"byteLength":247764,
			"byteOffset":330352,
			"target":34962
		},
		{
			"buffer":0,
			"byteLength":247764,
			"byteOffset":578116,
			"target":34962
		},
		{
			"buffer":0,
			"byteLength":165176,
			"byteOffset":825880,
			"target":34962
		},
		{
			"buffer":0,
			"byteLength":211284,
			"byteOffset":991056,
			"target":34963
		}
	],
	"samplers":[
		{
			"magFilter":9729,
			"minFilter":9987
		}
	],
	"buffers":[
		{
			"byteLength":1202340,
			"uri":"minion.bin"
		}
	]
}
