{
  "accessors": [
    {
      "bufferView": 2,
      "componentType": 5126,
      "count": 62763,
      "max": [
        8.204998016357422,
        20.641733169555664,
        54.19221496582031
      ],
      "min": [
        -6.284477710723877,
        -20.676860809326172,
        7.153081893920898
      ],
      "type": "VEC3"
    },
    {
      "bufferView": 2,
      "byteOffset": 753156,
      "componentType": 5126,
      "count": 62763,
      "max": [
        1.0,
        0.9999520778656006,
        0.999950647354126
      ],
      "min": [
        -1.0,
        -0.9999524354934692,
        -1.0
      ],
      "type": "VEC3"
    },
    {
      "bufferView": 1,
      "componentType": 5126,
      "count": 62763,
      "max": [
        39.0,
        1.000000238418579
      ],
      "min": [
        0.0,
        -1.0
      ],
      "type": "VEC2"
    },
    {
      "bufferView": 0,
      "componentType": 5125,
      "count": 375420,
      "type": "SCALAR"
    }
  ],
  "asset": {
    "extras": {
      "author": "ucukcontorian (https://sketchfab.com/ucukcontorian)",
      "license": "CC-BY-4.0 (http://creativecommons.org/licenses/by/4.0/)",
      "source": "https://sketchfab.com/3d-models/ring-01-free-92526ae4e7da47178ac23cde0932bace",
      "title": "Ring_01 - Free"
    },
    "generator": "Sketchfab-16.15.0",
    "version": "2.0"
  },
  "bufferViews": [
    {
      "buffer": 0,
      "byteLength": 1501680,
      "name": "floatBufferViews",
      "target": 34963
    },
    {
      "buffer": 0,
      "byteLength": 502104,
      "byteOffset": 1501680,
      "byteStride": 8,
      "name": "floatBufferViews",
      "target": 34962
    },
    {
      "buffer": 0,
      "byteLength": 1506312,
      "byteOffset": 2003784,
      "byteStride": 12,
      "name": "floatBufferViews",
      "target": 34962
    }
  ],
  "buffers": [
    {
      "byteLength": 3510096,
      "uri": "scene.bin"
    }
  ],
  "extensionsUsed": [
    "KHR_materials_specular"
  ],
  "materials": [
    {
      "doubleSided": true,
      "extensions": {
        "KHR_materials_specular": {
          "specularColorFactor": [
            1.0,
            1.0,
            1.0
          ],
          "specularFactor": 1.0
        }
      },
      "name": "Gold",
      "pbrMetallicRoughness": {
        "baseColorFactor": [
          0.8631572134541021,
          0.6104955708078648,
          0.16826940018969075,
          1.0
        ],
        "roughnessFactor": 0.1
      }
    }
  ],
  "meshes": [
    {
      "name": "Ring_Gold_0",
      "primitives": [
        {
          "attributes": {
            "NORMAL": 1,
            "POSITION": 0,
            "TEXCOORD_0": 2
          },
          "indices": 3,
          "material": 0,
          "mode": 4
        }
      ]
    }
  ],
  "nodes": [
    {
      "children": [
        1
      ],
      "matrix": [
        1.0,
        0.0,
        0.0,
        0.0,
        0.0,
        2.220446049250313e-16,
        -1.0,
        0.0,
        0.0,
        1.0,
        2.220446049250313e-16,
        0.0,
        0.0,
        0.0,
        0.0,
        1.0
      ],
      "name": "Sketchfab_model"
    },
    {
      "children": [
        2
      ],
      "matrix": [
        0.009999999776482582,
        0.0,
        0.0,
        0.0,
        0.0,
        0.0,
        0.009999999776482582,
        0.0,
        0.0,
        -0.009999999776482582,
        0.0,
        0.0,
        0.0,
        0.0,
        0.0,
        1.0
      ],
      "name": "Ring_01.fbx"
    },
    {
      "children": [
        3
      ],
      "name": "RootNode"
    },
    {
      "children": [
        4
      ],
      "matrix": [
        3.8347720283479474e-06,
        50.793095664348755,
        -0.038019939837298504,
        0.0,
        -50.79310989379859,
        3.832466860527303e-06,
        -3.081049256743873e-06,
        0.0,
        -3.0781796942881333e-06,
        0.03801993983753094,
        50.793095664348805,
        0.0,
        1.7236281846244594e-12,
        557.9932861328125,
        -1413.5079345703125,
        1.0
      ],
      "name": "Ring"
    },
    {
      "mesh": 0,
      "name": "Ring_Gold_0"
    }
  ],
  "scene": 0,
  "scenes": [
    {
      "name": "Sketchfab_Scene",
      "nodes": [
        0
      ]
    }
  ]
}
